<mxfile host="app.diagrams.net" modified="2023-11-21T01:51:20.797Z" agent="Mozilla/5.0 (Windows NT 10.0; Win64; x64) AppleWebKit/537.36 (KHTML, like Gecko) Chrome/119.0.0.0 Safari/537.36" etag="A7ZQ6uqr5KEjiHml7lT7" version="22.1.3" type="device">
  <diagram name="Page-1" id="rV_phdz-qOpUgSOjtNjB">
    <mxGraphModel dx="1434" dy="758" grid="1" gridSize="10" guides="1" tooltips="1" connect="1" arrows="1" fold="1" page="1" pageScale="1" pageWidth="1169" pageHeight="827" math="0" shadow="0">
      <root>
        <mxCell id="0" />
        <mxCell id="1" parent="0" />
        <mxCell id="J4UrMKeOO39ys8Sw-RBT-1" value="" style="whiteSpace=wrap;html=1;aspect=fixed;" parent="1" vertex="1">
          <mxGeometry x="25" y="199" width="120" height="120" as="geometry" />
        </mxCell>
        <mxCell id="CZ6Mu7qikoc5lUtHZDBn-8" value="" style="rounded=0;whiteSpace=wrap;html=1;strokeColor=default;dashed=1;" vertex="1" parent="1">
          <mxGeometry x="280" y="60" width="874" height="720" as="geometry" />
        </mxCell>
        <mxCell id="CZ6Mu7qikoc5lUtHZDBn-3" value="" style="rounded=1;whiteSpace=wrap;html=1;fillColor=default;dashed=1;strokeWidth=1;direction=south;" vertex="1" parent="1">
          <mxGeometry x="300" y="100" width="844" height="670" as="geometry" />
        </mxCell>
        <mxCell id="CZ6Mu7qikoc5lUtHZDBn-2" value="" style="endArrow=classic;startArrow=classic;html=1;rounded=0;entryX=0.25;entryY=1;entryDx=0;entryDy=0;" edge="1" parent="1" target="J4UrMKeOO39ys8Sw-RBT-1">
          <mxGeometry width="50" height="50" relative="1" as="geometry">
            <mxPoint x="55" y="390" as="sourcePoint" />
            <mxPoint x="54.5" y="340" as="targetPoint" />
          </mxGeometry>
        </mxCell>
        <mxCell id="CZ6Mu7qikoc5lUtHZDBn-4" value="" style="verticalLabelPosition=bottom;html=1;verticalAlign=top;align=center;strokeColor=none;fillColor=#00BEF2;shape=mxgraph.azure.cloud;" vertex="1" parent="1">
          <mxGeometry x="324" y="60" width="50" height="32.5" as="geometry" />
        </mxCell>
        <mxCell id="CZ6Mu7qikoc5lUtHZDBn-5" value="" style="verticalLabelPosition=bottom;html=1;verticalAlign=top;align=center;strokeColor=none;fillColor=#00BEF2;shape=mxgraph.azure.github_code;pointerEvents=1;" vertex="1" parent="1">
          <mxGeometry x="170" y="460" width="50" height="50" as="geometry" />
        </mxCell>
        <mxCell id="CZ6Mu7qikoc5lUtHZDBn-6" value="&lt;b&gt;Ambiente da Azure&lt;/b&gt;" style="text;html=1;strokeColor=none;fillColor=none;align=center;verticalAlign=middle;whiteSpace=wrap;rounded=0;" vertex="1" parent="1">
          <mxGeometry x="384" y="62.5" width="60" height="30" as="geometry" />
        </mxCell>
        <mxCell id="CZ6Mu7qikoc5lUtHZDBn-10" value="" style="verticalLabelPosition=bottom;html=1;verticalAlign=top;align=center;strokeColor=none;fillColor=#00BEF2;shape=mxgraph.azure.access_control;" vertex="1" parent="1">
          <mxGeometry x="244" y="52.5" width="50" height="50" as="geometry" />
        </mxCell>
        <mxCell id="CZ6Mu7qikoc5lUtHZDBn-11" value="&lt;b&gt;Chave de Assinatura&lt;br&gt;Azure&lt;/b&gt;" style="text;html=1;strokeColor=none;fillColor=none;align=center;verticalAlign=middle;whiteSpace=wrap;rounded=0;" vertex="1" parent="1">
          <mxGeometry x="190" y="92.5" width="60" height="30" as="geometry" />
        </mxCell>
        <mxCell id="CZ6Mu7qikoc5lUtHZDBn-19" value="" style="rounded=1;whiteSpace=wrap;html=1;" vertex="1" parent="1">
          <mxGeometry x="330" y="140" width="784" height="600" as="geometry" />
        </mxCell>
        <mxCell id="CZ6Mu7qikoc5lUtHZDBn-20" value="" style="rounded=1;whiteSpace=wrap;html=1;" vertex="1" parent="1">
          <mxGeometry x="350" y="180" width="740" height="500" as="geometry" />
        </mxCell>
        <mxCell id="CZ6Mu7qikoc5lUtHZDBn-13" value="" style="verticalLabelPosition=bottom;html=1;verticalAlign=top;align=center;strokeColor=none;fillColor=#00BEF2;shape=mxgraph.azure.azure_instance;" vertex="1" parent="1">
          <mxGeometry x="30" y="390" width="50" height="50" as="geometry" />
        </mxCell>
        <mxCell id="CZ6Mu7qikoc5lUtHZDBn-18" value="" style="whiteSpace=wrap;html=1;aspect=fixed;" vertex="1" parent="1">
          <mxGeometry x="607" y="238" width="393" height="393" as="geometry" />
        </mxCell>
        <mxCell id="CZ6Mu7qikoc5lUtHZDBn-31" value="" style="endArrow=classic;startArrow=classic;html=1;rounded=0;entryX=0.5;entryY=0.93;entryDx=0;entryDy=0;entryPerimeter=0;exitX=0;exitY=0.5;exitDx=0;exitDy=0;exitPerimeter=0;" edge="1" parent="1" source="CZ6Mu7qikoc5lUtHZDBn-5" target="CZ6Mu7qikoc5lUtHZDBn-13">
          <mxGeometry width="50" height="50" relative="1" as="geometry">
            <mxPoint x="20" y="510" as="sourcePoint" />
            <mxPoint x="70" y="460" as="targetPoint" />
            <Array as="points">
              <mxPoint x="55" y="485" />
            </Array>
          </mxGeometry>
        </mxCell>
        <mxCell id="CZ6Mu7qikoc5lUtHZDBn-33" value="" style="endArrow=classic;startArrow=classic;html=1;rounded=0;exitX=0.5;exitY=0;exitDx=0;exitDy=0;exitPerimeter=0;entryX=0;entryY=0.5;entryDx=0;entryDy=0;" edge="1" parent="1" source="CZ6Mu7qikoc5lUtHZDBn-5" target="CZ6Mu7qikoc5lUtHZDBn-48">
          <mxGeometry width="50" height="50" relative="1" as="geometry">
            <mxPoint x="159" y="460" as="sourcePoint" />
            <mxPoint x="380" y="430" as="targetPoint" />
            <Array as="points">
              <mxPoint x="195" y="430" />
            </Array>
          </mxGeometry>
        </mxCell>
        <mxCell id="CZ6Mu7qikoc5lUtHZDBn-34" value="" style="points=[[0.35,0,0],[0.98,0.51,0],[1,0.71,0],[0.67,1,0],[0,0.795,0],[0,0.65,0]];verticalLabelPosition=bottom;sketch=0;html=1;verticalAlign=top;aspect=fixed;align=center;pointerEvents=1;shape=mxgraph.cisco19.user;fillColor=#005073;strokeColor=none;" vertex="1" parent="1">
          <mxGeometry x="40" y="220" width="80" height="80" as="geometry" />
        </mxCell>
        <mxCell id="CZ6Mu7qikoc5lUtHZDBn-35" value="&lt;b&gt;Cliente&lt;/b&gt;" style="text;html=1;strokeColor=none;fillColor=none;align=center;verticalAlign=middle;whiteSpace=wrap;rounded=0;" vertex="1" parent="1">
          <mxGeometry x="85" y="199" width="60" height="30" as="geometry" />
        </mxCell>
        <mxCell id="CZ6Mu7qikoc5lUtHZDBn-36" value="&lt;b&gt;Push&lt;/b&gt;" style="text;html=1;strokeColor=none;fillColor=none;align=center;verticalAlign=middle;whiteSpace=wrap;rounded=0;" vertex="1" parent="1">
          <mxGeometry x="70" y="490" width="60" height="30" as="geometry" />
        </mxCell>
        <mxCell id="CZ6Mu7qikoc5lUtHZDBn-37" value="&lt;b&gt;Azure - WebServices&lt;br&gt;APP Services&lt;/b&gt;" style="text;html=1;strokeColor=none;fillColor=none;align=center;verticalAlign=middle;whiteSpace=wrap;rounded=0;" vertex="1" parent="1">
          <mxGeometry x="78" y="399" width="83" height="30" as="geometry" />
        </mxCell>
        <mxCell id="CZ6Mu7qikoc5lUtHZDBn-38" value="&lt;b&gt;Deploy&lt;/b&gt;" style="text;html=1;strokeColor=none;fillColor=none;align=center;verticalAlign=middle;whiteSpace=wrap;rounded=0;" vertex="1" parent="1">
          <mxGeometry x="210" y="405" width="60" height="30" as="geometry" />
        </mxCell>
        <mxCell id="CZ6Mu7qikoc5lUtHZDBn-40" value="" style="shape=image;html=1;verticalAlign=top;verticalLabelPosition=bottom;labelBackgroundColor=#ffffff;imageAspect=0;aspect=fixed;image=https://cdn4.iconfinder.com/data/icons/ionicons/512/icon-ios7-flag-outline-128.png" vertex="1" parent="1">
          <mxGeometry x="300" y="120" width="48" height="48" as="geometry" />
        </mxCell>
        <mxCell id="CZ6Mu7qikoc5lUtHZDBn-41" value="&lt;b&gt;Região - East US&lt;/b&gt;" style="text;html=1;strokeColor=none;fillColor=none;align=center;verticalAlign=middle;whiteSpace=wrap;rounded=0;" vertex="1" parent="1">
          <mxGeometry x="330" y="110" width="120" height="30" as="geometry" />
        </mxCell>
        <mxCell id="CZ6Mu7qikoc5lUtHZDBn-42" value="" style="image;sketch=0;aspect=fixed;html=1;points=[];align=center;fontSize=12;image=img/lib/mscae/Network_Security_Groups_Classic.svg;" vertex="1" parent="1">
          <mxGeometry x="1050" y="180" width="37" height="50" as="geometry" />
        </mxCell>
        <mxCell id="CZ6Mu7qikoc5lUtHZDBn-43" value="" style="image;aspect=fixed;html=1;points=[];align=center;fontSize=12;image=img/lib/azure2/general/Resource_Groups.svg;" vertex="1" parent="1">
          <mxGeometry x="328.81" y="161" width="52.07" height="49" as="geometry" />
        </mxCell>
        <mxCell id="CZ6Mu7qikoc5lUtHZDBn-44" value="&lt;b&gt;Resource Group - rg-Vacina-Facil&lt;/b&gt;" style="text;html=1;strokeColor=none;fillColor=none;align=center;verticalAlign=middle;whiteSpace=wrap;rounded=0;" vertex="1" parent="1">
          <mxGeometry x="380.88" y="150" width="199.12" height="30" as="geometry" />
        </mxCell>
        <mxCell id="CZ6Mu7qikoc5lUtHZDBn-45" value="&lt;b&gt;NSG - Produção - Private IP&lt;/b&gt;" style="text;html=1;strokeColor=none;fillColor=none;align=center;verticalAlign=middle;whiteSpace=wrap;rounded=0;" vertex="1" parent="1">
          <mxGeometry x="1034" y="238" width="80" height="30" as="geometry" />
        </mxCell>
        <mxCell id="CZ6Mu7qikoc5lUtHZDBn-48" value="" style="rounded=0;whiteSpace=wrap;html=1;" vertex="1" parent="1">
          <mxGeometry x="390" y="292.5" width="196" height="275" as="geometry" />
        </mxCell>
        <mxCell id="CZ6Mu7qikoc5lUtHZDBn-50" value="&lt;b&gt;GitHub Code&lt;/b&gt;" style="text;html=1;strokeColor=none;fillColor=none;align=center;verticalAlign=middle;whiteSpace=wrap;rounded=0;" vertex="1" parent="1">
          <mxGeometry x="165" y="520" width="60" height="30" as="geometry" />
        </mxCell>
        <mxCell id="CZ6Mu7qikoc5lUtHZDBn-51" value="" style="sketch=0;pointerEvents=1;shadow=0;dashed=0;html=1;strokeColor=none;fillColor=#505050;labelPosition=center;verticalLabelPosition=bottom;verticalAlign=top;outlineConnect=0;align=center;shape=mxgraph.office.devices.workstation_pc;" vertex="1" parent="1">
          <mxGeometry x="454" y="360" width="53" height="59" as="geometry" />
        </mxCell>
        <mxCell id="CZ6Mu7qikoc5lUtHZDBn-52" value="" style="sketch=0;pointerEvents=1;shadow=0;dashed=0;html=1;strokeColor=none;fillColor=#505050;labelPosition=center;verticalLabelPosition=bottom;verticalAlign=top;outlineConnect=0;align=center;shape=mxgraph.office.devices.workstation_pc;" vertex="1" parent="1">
          <mxGeometry x="490" y="390" width="53" height="59" as="geometry" />
        </mxCell>
        <mxCell id="CZ6Mu7qikoc5lUtHZDBn-53" value="" style="sketch=0;pointerEvents=1;shadow=0;dashed=0;html=1;strokeColor=none;fillColor=#505050;labelPosition=center;verticalLabelPosition=bottom;verticalAlign=top;outlineConnect=0;align=center;shape=mxgraph.office.devices.workstation_pc;" vertex="1" parent="1">
          <mxGeometry x="454" y="421" width="53" height="59" as="geometry" />
        </mxCell>
        <mxCell id="CZ6Mu7qikoc5lUtHZDBn-54" value="VMs - Web" style="text;html=1;strokeColor=none;fillColor=none;align=center;verticalAlign=middle;whiteSpace=wrap;rounded=0;" vertex="1" parent="1">
          <mxGeometry x="451.5" y="510" width="73" height="30" as="geometry" />
        </mxCell>
        <mxCell id="CZ6Mu7qikoc5lUtHZDBn-55" value="&lt;b&gt;Public IP&lt;/b&gt;" style="image;aspect=fixed;html=1;points=[];align=center;fontSize=12;image=img/lib/azure2/networking/Public_IP_Addresses_Classic.svg;" vertex="1" parent="1">
          <mxGeometry x="535" y="190" width="49.23" height="40" as="geometry" />
        </mxCell>
        <mxCell id="CZ6Mu7qikoc5lUtHZDBn-57" value="" style="sketch=0;aspect=fixed;pointerEvents=1;shadow=0;dashed=0;html=1;strokeColor=none;labelPosition=center;verticalLabelPosition=bottom;verticalAlign=top;align=center;fillColor=#00188D;shape=mxgraph.mscae.enterprise.pack" vertex="1" parent="1">
          <mxGeometry x="670" y="260" width="100" height="90" as="geometry" />
        </mxCell>
        <mxCell id="CZ6Mu7qikoc5lUtHZDBn-60" value="" style="sketch=0;aspect=fixed;pointerEvents=1;shadow=0;dashed=0;html=1;strokeColor=none;labelPosition=center;verticalLabelPosition=bottom;verticalAlign=top;align=center;fillColor=#00188D;shape=mxgraph.mscae.enterprise.pack" vertex="1" parent="1">
          <mxGeometry x="670" y="430" width="100" height="90" as="geometry" />
        </mxCell>
        <mxCell id="CZ6Mu7qikoc5lUtHZDBn-63" value="" style="endArrow=classic;startArrow=classic;html=1;rounded=0;entryX=0.005;entryY=0.55;entryDx=0;entryDy=0;entryPerimeter=0;" edge="1" parent="1" source="CZ6Mu7qikoc5lUtHZDBn-51" target="CZ6Mu7qikoc5lUtHZDBn-57">
          <mxGeometry width="50" height="50" relative="1" as="geometry">
            <mxPoint x="630" y="340" as="sourcePoint" />
            <mxPoint x="680" y="290" as="targetPoint" />
            <Array as="points">
              <mxPoint x="480" y="270" />
              <mxPoint x="670" y="270" />
            </Array>
          </mxGeometry>
        </mxCell>
        <mxCell id="CZ6Mu7qikoc5lUtHZDBn-61" value="" style="sketch=0;aspect=fixed;pointerEvents=1;shadow=0;dashed=0;html=1;strokeColor=none;labelPosition=center;verticalLabelPosition=bottom;verticalAlign=top;align=center;fillColor=#00188D;shape=mxgraph.mscae.enterprise.pack" vertex="1" parent="1">
          <mxGeometry x="830" y="520" width="100" height="90" as="geometry" />
        </mxCell>
        <mxCell id="CZ6Mu7qikoc5lUtHZDBn-69" value="" style="endArrow=classic;startArrow=classic;html=1;rounded=0;entryX=0.5;entryY=1;entryDx=0;entryDy=0;entryPerimeter=0;exitX=0.005;exitY=0.55;exitDx=0;exitDy=0;exitPerimeter=0;" edge="1" parent="1" source="CZ6Mu7qikoc5lUtHZDBn-61" target="CZ6Mu7qikoc5lUtHZDBn-60">
          <mxGeometry width="50" height="50" relative="1" as="geometry">
            <mxPoint x="690" y="590" as="sourcePoint" />
            <mxPoint x="740" y="540" as="targetPoint" />
            <Array as="points">
              <mxPoint x="800" y="570" />
              <mxPoint x="720" y="570" />
            </Array>
          </mxGeometry>
        </mxCell>
        <mxCell id="CZ6Mu7qikoc5lUtHZDBn-74" value="" style="endArrow=classic;startArrow=classic;html=1;rounded=0;entryX=0.5;entryY=1;entryDx=0;entryDy=0;entryPerimeter=0;exitX=0.5;exitY=0;exitDx=0;exitDy=0;exitPerimeter=0;" edge="1" parent="1" source="CZ6Mu7qikoc5lUtHZDBn-60" target="CZ6Mu7qikoc5lUtHZDBn-57">
          <mxGeometry width="50" height="50" relative="1" as="geometry">
            <mxPoint x="690" y="413.5" as="sourcePoint" />
            <mxPoint x="740" y="363.5" as="targetPoint" />
          </mxGeometry>
        </mxCell>
        <mxCell id="CZ6Mu7qikoc5lUtHZDBn-75" value="&lt;b&gt;FrontEnd&lt;/b&gt;" style="text;html=1;strokeColor=none;fillColor=none;align=center;verticalAlign=middle;whiteSpace=wrap;rounded=0;" vertex="1" parent="1">
          <mxGeometry x="526" y="292.5" width="60" height="30" as="geometry" />
        </mxCell>
        <mxCell id="CZ6Mu7qikoc5lUtHZDBn-76" value="&lt;b&gt;BackEnd&lt;/b&gt;" style="text;html=1;strokeColor=none;fillColor=none;align=center;verticalAlign=middle;whiteSpace=wrap;rounded=0;" vertex="1" parent="1">
          <mxGeometry x="940" y="238" width="60" height="30" as="geometry" />
        </mxCell>
        <mxCell id="CZ6Mu7qikoc5lUtHZDBn-78" value="Sub-rede" style="text;html=1;strokeColor=none;fillColor=none;align=center;verticalAlign=middle;whiteSpace=wrap;rounded=0;" vertex="1" parent="1">
          <mxGeometry x="607" y="601" width="60" height="30" as="geometry" />
        </mxCell>
        <mxCell id="CZ6Mu7qikoc5lUtHZDBn-79" value="&lt;b&gt;NSG&lt;/b&gt;" style="image;sketch=0;aspect=fixed;html=1;points=[];align=center;fontSize=12;image=img/lib/mscae/Network_Security_Groups_Classic.svg;" vertex="1" parent="1">
          <mxGeometry x="980" y="360" width="37" height="50" as="geometry" />
        </mxCell>
        <mxCell id="CZ6Mu7qikoc5lUtHZDBn-80" value="VMs - API / Java Springboot" style="text;html=1;strokeColor=none;fillColor=none;align=center;verticalAlign=middle;whiteSpace=wrap;rounded=0;" vertex="1" parent="1">
          <mxGeometry x="760" y="429" width="90" height="30" as="geometry" />
        </mxCell>
        <mxCell id="CZ6Mu7qikoc5lUtHZDBn-81" value="VMs - APP / React" style="text;html=1;strokeColor=none;fillColor=none;align=center;verticalAlign=middle;whiteSpace=wrap;rounded=0;" vertex="1" parent="1">
          <mxGeometry x="750" y="270" width="110" height="30" as="geometry" />
        </mxCell>
        <mxCell id="CZ6Mu7qikoc5lUtHZDBn-82" value="VMs - Oracle Server DB" style="text;html=1;strokeColor=none;fillColor=none;align=center;verticalAlign=middle;whiteSpace=wrap;rounded=0;" vertex="1" parent="1">
          <mxGeometry x="907" y="510" width="73" height="30" as="geometry" />
        </mxCell>
      </root>
    </mxGraphModel>
  </diagram>
</mxfile>
